<?xml version="1.0" encoding="UTF-8"?>
<svg width="76px" height="78px" viewBox="0 0 76 78" version="1.1" xmlns="http://www.w3.org/2000/svg" xmlns:xlink="http://www.w3.org/1999/xlink">
    <!-- Generator: Sketch 58 (84663) - https://sketch.com -->
    <title>Icon</title>
    <desc>Created with Sketch.</desc>
    <defs>
        <path d="M60.6521586,10.2317905 C42.6521586,-7.54863177 27.3200407,0.537677283 24.6521586,14.0838212 C21.9842765,27.6299652 -2.79876327,30.3346666 0.261187502,46.3346666 C3.32113827,62.3346666 36.6521586,52.8346666 36.6521586,67.3346666 C36.6521586,81.8346666 75.1895892,81.3346666 75.1895892,62.3346666 C75.1895892,43.3346666 78.6521586,28.0122127 60.6521586,10.2317905 Z" id="path-1"></path>
    </defs>
    <g id="Page-1" stroke="none" stroke-width="1" fill="none" fill-rule="evenodd">
        <g id="Homepagina" transform="translate(-150.000000, -3928.000000)">
            <g id="Group-6" transform="translate(150.000000, 3722.000000)">
                <g id="Option-1" transform="translate(0.000000, 206.000000)">
                    <g id="Icon">
                        <g id="Ornament/bgicon">
                            <mask id="mask-2" fill="white">
                                <use xlink:href="#path-1"></use>
                            </mask>
                            <use id="bgicon" fill-opacity="0.2" fill="#FFFFFF" fill-rule="evenodd" xlink:href="#path-1"></use>
                            <g id="Color/Green" opacity="0.2" mask="url(#mask-2)" fill="#47642E" fill-rule="evenodd">
                                <rect id="Rectangle" x="0" y="0" width="76" height="78"></rect>
                            </g>
                        </g>
                        <g id="icon/home/target" transform="translate(10.000000, 11.000000)" stroke-linecap="round" stroke-linejoin="round">
                            <g id="Group-9" transform="translate(-1.000000, -1.000000)">
                                <path d="M54.708,21.5674 C55.546,24.2294 56,27.0614 56,29.9994 C56,45.4634 43.464,57.9994 28,57.9994 C12.536,57.9994 0,45.4634 0,29.9994 C0,14.5354 12.536,1.9994 28,1.9994 C30.744,1.9994 33.394,2.3954 35.898,3.1294" id="Stroke-1" stroke="#333333" stroke-width="3"></path>
                                <path d="M39.8018,27.8184 C39.9318,28.5264 39.9998,29.2544 39.9998,30.0004 C39.9998,36.6264 34.6278,42.0004 27.9998,42.0004 C21.3738,42.0004 15.9998,36.6264 15.9998,30.0004 C15.9998,23.3724 21.3738,18.0004 27.9998,18.0004 C28.6678,18.0004 29.3218,18.0544 29.9598,18.1584" id="Stroke-3" stroke="#333333" stroke-width="3"></path>
                                <path d="M28,30 L56,2" id="Stroke-5" stroke="#F58220" stroke-width="3"></path>
                                <polygon id="Stroke-7" stroke="#F58220" stroke-width="3" points="50 8 50 0 42 8 42 16 50 16 58 8"></polygon>
                            </g>
                        </g>
                    </g>
                </g>
            </g>
        </g>
    </g>
</svg>