<?xml version="1.0" encoding="UTF-8"?>
<svg width="124px" height="50px" viewBox="0 0 124 50" version="1.1" xmlns="http://www.w3.org/2000/svg" xmlns:xlink="http://www.w3.org/1999/xlink">
    <!-- Generator: Sketch 58 (84663) - https://sketch.com -->
    <title>Group</title>
    <desc>Created with Sketch.</desc>
    <g id="Page-1" stroke="none" stroke-width="1" fill="none" fill-rule="evenodd">
        <g id="Homepagina" transform="translate(-150.000000, -21.000000)">
            <g id="Group-11">
                <g id="menu" transform="translate(150.000000, 19.000000)">
                    <g id="Group" transform="translate(0.000000, 2.000000)">
                        <path d="M4.78915663,4.65506024 C4.95542169,4.65506024 5.08975904,4.79 5.08975904,4.95566265 L5.08975904,16.0562651 L5.15722892,16.0562651 C5.26987952,15.7418072 5.4626506,15.4249398 5.73373494,15.1080723 C6.00662651,14.7912048 6.33313253,14.5074699 6.7186747,14.2586747 C7.10301205,14.0104819 7.55542169,13.8074699 8.0753012,13.6478313 C8.59638554,13.4906024 9.16144578,13.4116867 9.77228916,13.4116867 C11.0620482,13.4116867 12.1024096,13.6086747 12.8945783,14.0044578 C13.6861446,14.3996386 14.3024096,14.9484337 14.7433735,15.650241 C15.1843373,16.3526506 15.4843373,17.176747 15.6433735,18.1273494 C15.8006024,19.0779518 15.8801205,20.1074699 15.8801205,21.2153012 L15.8801205,30.0092771 C15.8801205,30.1749398 15.7457831,30.3098795 15.5795181,30.3098795 L11.0909639,30.3098795 C10.9253012,30.3098795 10.7903614,30.1749398 10.7903614,30.0092771 L10.7903614,22.2327711 C10.7903614,21.7580723 10.7740964,21.2653012 10.739759,20.7574699 C10.7054217,20.2484337 10.6042169,19.7779518 10.4343373,19.3496386 C10.2644578,18.9189157 10.0048193,18.5689157 9.65361446,18.2972289 C9.30240964,18.0261446 8.79939759,17.8893976 8.14337349,17.8893976 C7.4873494,17.8893976 6.9560241,18.0092771 6.54879518,18.2460241 C6.14216867,18.4839759 5.83012048,18.8008434 5.61626506,19.1960241 C5.40060241,19.5918072 5.25963855,20.0393976 5.19096386,20.5363855 C5.12409639,21.0351807 5.08975904,21.5550602 5.08975904,22.0978313 L5.08975904,30.0092771 C5.08975904,30.1749398 4.95542169,30.3098795 4.78915663,30.3098795 L0.30060241,30.3098795 C0.134337349,30.3098795 5.68434189e-14,30.1749398 5.68434189e-14,30.0092771 L5.68434189e-14,4.95566265 C5.68434189e-14,4.79 0.134337349,4.65506024 0.30060241,4.65506024 L4.78915663,4.65506024 Z" id="Fill-41" fill="#FFFFFF"></path>
                        <path d="M28.503494,32.9898193 C28.1637349,33.871747 27.8354217,34.6530723 27.5185542,35.331988 C27.2016867,36.0096988 26.8010843,36.5807831 26.3143373,37.0446386 C25.8275904,37.508494 25.2113253,37.8590964 24.4649398,38.0970482 C23.7185542,38.3356024 22.7342169,38.4530723 21.5137349,38.4530723 C20.2914458,38.4530723 19.1095181,38.2771687 17.9673494,37.9241566 C17.8221687,37.8789759 17.7318072,37.7295783 17.7559036,37.5795783 L18.3324096,34.0337952 C18.3631325,33.8458434 18.5571084,33.7428313 18.7354217,33.8090964 C19.3956627,34.0554819 20.0727711,34.1783735 20.766747,34.1783735 C21.3312048,34.1783735 21.7950602,34.1145181 22.1577108,33.9904217 C22.5191566,33.8657229 22.8191566,33.6856024 23.056506,33.4476506 C23.2950602,33.211506 23.4926506,32.9211446 23.6510843,32.581988 C23.8083133,32.2440361 23.9781928,31.8464458 24.1595181,31.395241 L24.5336145,30.4440361 L17.4878313,14.238012 C17.4016867,14.0392169 17.5474699,13.8175301 17.7637349,13.8175301 L22.5974699,13.8175301 C22.7209639,13.8175301 22.8324096,13.8934337 22.8775904,14.0090964 L27.0444578,24.7096988 L27.1119277,24.7096988 L30.6739759,14.0235542 C30.7149398,13.9006627 30.8293976,13.8175301 30.9589157,13.8175301 L35.5293976,13.8175301 C35.7408434,13.8175301 35.8860241,14.0301807 35.8089157,14.2271687 L28.503494,32.9898193 Z" id="Fill-43" fill="#FFFFFF"></path>
                        <path d="M36.0318072,38.0540964 L36.0318072,32.7522892 L30.853494,32.7522892 L30.4637349,33.7528916 C30.1113253,34.6679518 29.7619277,35.5016867 29.4251807,36.2215663 C29.0992771,36.9179518 28.676988,37.5137349 28.2089157,38.0540964 L36.0318072,38.0540964 Z" id="Fill-45" fill="#FFFFFF"></path>
                        <polygon id="Fill-47" fill="#FFFFFF" points="107.306205 38.0614458 97.605 12.4518072 89.2333133 32.7524096 45.331506 32.7524096 45.331506 38.0542169 92.7977711 38.073494 97.5477711 26.2198795 107.462229 49.9162651 123.236928 3.97903932e-13"></polygon>
                        <path d="M16.4081928,32.7521084 L0.305180723,32.7521084 C0.138915663,32.7521084 0.00457831325,32.8864458 0.00457831325,33.0527108 L0.00457831325,37.7533133 C0.00457831325,37.9195783 0.138915663,38.0539157 0.305180723,38.0539157 L15.5461446,38.0539157 L16.4081928,32.7521084 Z" id="Fill-49" fill="#FFFFFF"></path>
                        <path d="M42.8189157,22.0625904 C42.8189157,23.3071687 43.1761446,24.3137952 43.8887952,25.0842771 C44.6008434,25.8529518 45.6014458,26.2378916 46.8918072,26.2378916 C48.1809639,26.2378916 49.1815663,25.8529518 49.8948193,25.0842771 C50.6074699,24.3137952 50.963494,23.3071687 50.963494,22.0625904 C50.963494,20.8198193 50.6074699,19.8137952 49.8948193,19.0427108 C49.1815663,18.2746386 48.1809639,17.8896988 46.8918072,17.8896988 C45.6014458,17.8896988 44.6008434,18.2746386 43.8887952,19.0427108 C43.1761446,19.8137952 42.8189157,20.8198193 42.8189157,22.0625904 M38.436988,13.8174096 L42.5183133,13.8174096 C42.6839759,13.8174096 42.8189157,13.9523494 42.8189157,14.118012 L42.8189157,15.9903012 L42.886988,15.9903012 C43.0912048,15.6963253 43.3562651,15.3957229 43.6845783,15.091506 C44.0116867,14.7848795 44.3972289,14.5071687 44.8381928,14.2589759 C45.2791566,14.0101807 45.7598795,13.8071687 46.2809639,13.6475301 C46.800241,13.4903012 47.3544578,13.411988 47.9424096,13.411988 C49.1646988,13.411988 50.2731325,13.6210241 51.2689157,14.0390964 C52.2640964,14.4577711 53.1183133,15.0457229 53.8309639,15.8035542 C54.543012,16.561988 55.0912048,17.4607831 55.4761446,18.5005422 C55.8604819,19.5421084 56.053253,20.6830723 56.053253,21.928253 C56.053253,23.0812651 55.8773494,24.1836747 55.5273494,25.2354819 C55.1761446,26.2878916 54.6785542,27.2216265 54.0339759,28.0360843 C53.3893976,28.8499398 52.6026506,29.4999398 51.6761446,29.9866867 C50.7478313,30.4734337 49.6960241,30.7156024 48.5195181,30.7156024 C47.4562651,30.7156024 46.4671084,30.551747 45.5508434,30.2246386 C44.6351807,29.8975301 43.8821687,29.3360843 43.2942169,28.5451205 L43.226747,28.5451205 L43.226747,37.7445181 C43.226747,37.9107831 43.0924096,38.0451205 42.9261446,38.0451205 L38.436988,38.0451205 C38.2707229,38.0451205 38.1363855,37.9107831 38.1363855,37.7445181 L38.1363855,14.118012 C38.1363855,13.9523494 38.2707229,13.8174096 38.436988,13.8174096" id="Fill-51" fill="#FFFFFF"></path>
                        <path d="M70.144759,20.1965663 C70.1676506,19.3369277 69.8851205,18.601988 69.2965663,17.9911446 C68.7086145,17.3796988 67.9501807,17.0754819 67.0236747,17.0754819 C66.4574096,17.0754819 65.9604217,17.1664458 65.5303012,17.3471687 C65.1007831,17.5290964 64.7333133,17.7592169 64.4278916,18.0429518 C64.1218675,18.3266867 63.8851205,18.6537952 63.715241,19.0266867 C63.5453614,19.3989759 63.4489759,19.7905422 63.4260843,20.1965663 L70.144759,20.1965663 Z M74.1923494,27.265241 C74.3339157,27.3694578 74.3616265,27.5772892 74.2483735,27.7110241 C73.4694578,28.6309036 72.5074096,29.3495783 71.3670482,29.8688554 C70.1218675,30.4339157 68.8327108,30.7158434 67.4989759,30.7158434 C66.231506,30.7158434 65.0387349,30.5128313 63.9194578,30.105 C62.7989759,29.6989759 61.8260843,29.1170482 61.0001807,28.3586145 C60.1748795,27.6007831 59.5242771,26.6893373 59.0489759,25.6272892 C58.5748795,24.5628313 58.3363253,23.3754819 58.3363253,22.0628313 C58.3363253,20.7513855 58.5748795,19.565241 59.0489759,18.5007831 C59.5242771,17.4381325 60.1748795,16.5266867 61.0001807,15.7688554 C61.8260843,15.0104217 62.7989759,14.428494 63.9194578,14.0206627 C65.0387349,13.6146386 66.231506,13.4116265 67.4989759,13.4116265 C68.6742771,13.4116265 69.7429518,13.6146386 70.705,14.0206627 C71.6658434,14.428494 72.4809036,15.0104217 73.1477711,15.7688554 C73.8158434,16.5266867 74.3303012,17.4381325 74.691747,18.5007831 C75.0543976,19.565241 75.2357229,20.7513855 75.2357229,22.0628313 L75.2357229,23.3568072 C75.2357229,23.5224699 75.1013855,23.6574096 74.9351205,23.6574096 L63.8188554,23.6574096 C63.6206627,23.6574096 63.4670482,23.8513855 63.5218675,24.0411446 C63.7537952,24.8369277 64.1628313,25.4833133 64.7495783,25.9833133 C65.4290964,26.5592169 66.2658434,26.8489759 67.2610241,26.8489759 C68.0977711,26.8489759 68.805,26.6604217 69.381506,26.2875301 C69.881506,25.9646386 70.3254819,25.5610241 70.7146386,25.0766867 C70.8158434,24.9513855 70.9941566,24.9212651 71.1236747,25.0164458 L74.1923494,27.265241 Z" id="Fill-53" fill="#FFFFFF"></path>
                        <path d="M78.646988,13.8177108 L83.1355422,13.8177108 C83.3018072,13.8177108 83.4361446,13.9520482 83.4361446,14.1183133 L83.4361446,16.4646988 L83.5036145,16.4646988 C84.046988,15.4478313 84.6909639,14.6833735 85.4373494,14.1737349 C86.1843373,13.6646988 87.1222892,13.4116867 88.2542169,13.4116867 C88.5487952,13.4116867 88.8427711,13.4219277 89.136747,13.4448193 C89.4307229,13.4677108 89.7024096,13.513494 89.9506024,13.5791566 L89.9506024,18.2291566 C89.5891566,18.1171084 89.2331325,18.0321687 88.8819277,17.9743373 C88.5307229,17.9183133 88.163253,17.8893976 87.7789157,17.8893976 C86.8066265,17.8893976 86.0373494,18.0261446 85.4722892,18.2978313 C84.9066265,18.5689157 84.4704819,18.9478313 84.1650602,19.4345783 C83.8608434,19.9213253 83.6620482,20.503253 83.5716867,21.1803614 C83.4807229,21.8598795 83.4361446,22.6074699 83.4361446,23.4213253 L83.4361446,30.0092771 C83.4361446,30.1749398 83.3018072,30.3098795 83.1355422,30.3098795 L78.646988,30.3098795 C78.4807229,30.3098795 78.3463855,30.1749398 78.3463855,30.0092771 L78.3463855,14.1183133 C78.3463855,13.9520482 78.4807229,13.8177108 78.646988,13.8177108" id="Fill-55" fill="#FFFFFF"></path>
                    </g>
                </g>
            </g>
        </g>
    </g>
</svg>