<?xml version="1.0" encoding="UTF-8"?>
<svg width="124px" height="50px"  viewBox="0 0 111 45" version="1.1" xmlns="http://www.w3.org/2000/svg" xmlns:xlink="http://www.w3.org/1999/xlink">
    <!-- Generator: Sketch 58 (84663) - https://sketch.com -->
    <title>Group 10</title>
    <desc>Created with Sketch.</desc>
    <g id="Page-1" stroke="none" stroke-width="1" fill="none" fill-rule="evenodd">
        <g id="Homepage" transform="translate(-21.000000, -15.000000)">
            <g id="Group-10" transform="translate(21.000000, 15.000000)">
                <polygon id="Fill-47" fill="#F58220" points="96.6858409 34.3127648 87.969062 11.2254257 80.4468888 29.5266169 41 29.5266169 41 34.3062478 83.6496447 34.3236263 87.9176403 23.6374772 96.8260325 45 111 0"></polygon>
                <g id="Group" transform="translate(0.000000, 4.000000)">
                    <path d="M4.31024085,0.189554106 C4.4598794,0.189554106 4.58078301,0.310999886 4.58078301,0.460096267 L4.58078301,10.4506382 L4.6415059,10.4506382 C4.74289144,10.1676261 4.91638541,9.88244542 5.16036131,9.5972647 C5.40596371,9.31208398 5.69981913,9.05672255 6.04680707,8.83280689 C6.39271067,8.6094334 6.79987934,8.42672256 7.26777089,8.28304787 C7.73674678,8.14154185 8.24530099,8.07051775 8.79506001,8.07051775 C9.95584311,8.07051775 10.8921684,8.2478069 11.6051202,8.60401171 C12.3175298,8.95967436 12.8721683,9.45359001 13.2690358,10.0852165 C13.6659033,10.7173852 13.9359032,11.4590719 14.0790358,12.314614 C14.2205418,13.1701562 14.2921081,14.0967224 14.2921081,15.0937706 L14.2921081,23.0083487 C14.2921081,23.1574451 14.1712044,23.2788908 14.0215659,23.2788908 L9.98186721,23.2788908 C9.83277082,23.2788908 9.71132504,23.1574451 9.71132504,23.0083487 L9.71132504,16.0094934 C9.71132504,15.5822645 9.69668649,15.1387706 9.66578288,14.6817224 C9.63487926,14.2235899 9.54379493,13.8001562 9.39090337,13.4146742 C9.2380118,13.0270236 9.00433711,12.7120237 8.68825278,12.4675056 C8.37216845,12.2235297 7.91945762,12.1004574 7.32903595,12.1004574 C6.73861428,12.1004574 6.26042152,12.208349 5.89391551,12.4214213 C5.52795166,12.6355779 5.24710829,12.9207586 5.05463842,13.2764212 C4.86054204,13.632626 4.73367457,14.0354574 4.67186735,14.4827465 C4.61168662,14.9316621 4.58078301,15.3995537 4.58078301,15.8880477 L4.58078301,23.0083487 C4.58078301,23.1574451 4.4598794,23.2788908 4.31024085,23.2788908 L0.270542162,23.2788908 C0.120903611,23.2788908 5.68434189e-14,23.1574451 5.68434189e-14,23.0083487 L5.68434189e-14,0.460096267 C5.68434189e-14,0.310999886 0.120903611,0.189554106 0.270542162,0.189554106 L4.31024085,0.189554106 Z" id="Fill-41" fill="#47642E"></path>
                    <path d="M25.6531439,25.6908366 C25.3473608,26.4845715 25.0518789,27.1877642 24.7666981,27.7987883 C24.4815174,28.4087281 24.1209753,28.9227039 23.682903,29.3401738 C23.2448307,29.7576437 22.6901922,30.0731858 22.0184452,30.2873425 C21.3466982,30.5020413 20.4607946,30.6077641 19.3623609,30.6077641 C18.2623007,30.6077641 17.1985658,30.4494509 16.170614,30.1317401 C16.0399514,30.0910774 15.9586261,29.9566196 15.9803128,29.8216196 L16.4991682,26.6304149 C16.5268188,26.4612582 16.7013971,26.3685474 16.8618791,26.4281859 C17.4560959,26.6499329 18.0654935,26.7605353 18.6900718,26.7605353 C19.1980838,26.7605353 19.6155537,26.7030655 19.9419392,26.5913787 C20.2672404,26.4791498 20.5372404,26.3170414 20.7508549,26.1028847 C20.9655537,25.8903546 21.143385,25.6290293 21.2859753,25.3237884 C21.4274814,25.0196318 21.5803729,24.6618004 21.7435657,24.2557161 L22.0802524,23.3996318 L15.7390478,8.8142105 C15.6615177,8.63529485 15.7927225,8.43577678 15.987361,8.43577678 L20.3377224,8.43577678 C20.4488669,8.43577678 20.5491681,8.50409003 20.5898308,8.60818641 L24.3400114,18.2387283 L24.4007343,18.2387283 L27.6065776,8.62119846 C27.6434451,8.51059605 27.7464571,8.43577678 27.8630234,8.43577678 L31.976457,8.43577678 C32.1667582,8.43577678 32.2974208,8.62716232 32.2280232,8.80445147 L25.6531439,25.6908366 Z" id="Fill-43" fill="#47642E"></path>
                    <path d="M32.4286256,30.2486858 L32.4286256,25.4770595 L27.7681438,25.4770595 L27.4173607,26.3776016 C27.1001921,27.2011558 26.7857342,27.9515172 26.4826619,28.5994088 C26.1893487,29.2261557 25.8092885,29.7623606 25.3880234,30.2486858 L32.4286256,30.2486858 Z" id="Fill-45" fill="#F58220"></path>
                    <path d="M14.7673731,25.4768968 L0.274662643,25.4768968 C0.125024093,25.4768968 0.00412048182,25.5978004 0.00412048182,25.747439 L0.00412048182,29.977981 C0.00412048182,30.1276196 0.125024093,30.2485232 0.274662643,30.2485232 L13.9915297,30.2485232 L14.7673731,25.4768968 Z" id="Fill-49" fill="#F58220"></path>
                    <path d="M38.5370231,15.8563308 C38.5370231,16.9764513 38.8585291,17.8824151 39.4999146,18.5758488 C40.140758,19.267656 41.0413001,19.6141018 42.2026254,19.6141018 C43.3628663,19.6141018 44.2634085,19.267656 44.9053362,18.5758488 C45.5467217,17.8824151 45.8671434,16.9764513 45.8671434,15.8563308 C45.8671434,14.7378369 45.5467217,13.8324152 44.9053362,13.1384393 C44.2634085,12.4471743 43.3628663,12.1007285 42.2026254,12.1007285 C41.0413001,12.1007285 40.140758,12.4471743 39.4999146,13.1384393 C38.8585291,13.8324152 38.5370231,14.7378369 38.5370231,15.8563308 M34.5932882,8.43566835 L38.2664809,8.43566835 C38.4155773,8.43566835 38.5370231,8.55711413 38.5370231,8.70621051 L38.5370231,10.3912707 L38.5982881,10.3912707 C38.7820833,10.1266924 39.0206375,9.85615024 39.3161194,9.58235506 C39.610517,9.30639121 39.957505,9.05645146 40.3543724,8.83307797 C40.7512399,8.60916232 41.1838905,8.42645148 41.6528664,8.28277678 C42.1202158,8.14127076 42.6190109,8.07078884 43.1481675,8.07078884 C44.2482277,8.07078884 45.2458181,8.25892136 46.1420229,8.63518641 C47.0376855,9.01199363 47.8064807,9.54115024 48.4478662,10.2231984 C49.0887095,10.9057888 49.582083,11.7147044 49.9285288,12.6504875 C50.2744324,13.5878971 50.4479264,14.6147646 50.4479264,15.7354272 C50.4479264,16.773138 50.2896131,17.7653067 49.9746131,18.7119331 C49.6585288,19.6591018 49.2106975,20.4994632 48.630577,21.2324752 C48.0504566,21.9649451 47.3423843,22.5499451 46.5085289,22.9880174 C45.673047,23.4260896 44.7264205,23.6440414 43.6675651,23.6440414 C42.7106374,23.6440414 41.8203965,23.4965716 40.995758,23.202174 C40.1716616,22.9077764 39.4939508,22.4024752 38.9647941,21.6906078 L38.9040713,21.6906078 L38.9040713,29.9700654 C38.9040713,30.1197039 38.7831676,30.2406075 38.6335291,30.2406075 L34.5932882,30.2406075 C34.4436497,30.2406075 34.3227461,30.1197039 34.3227461,29.9700654 L34.3227461,8.70621051 C34.3227461,8.55711413 34.4436497,8.43566835 34.5932882,8.43566835" id="Fill-51" fill="#47642E"></path>
                    <path d="M63.1302815,14.1769092 C63.1508839,13.4032345 62.8966068,12.7417887 62.366908,12.1920297 C61.8377514,11.6417285 61.155161,11.3679333 60.3213056,11.3679333 C59.8116671,11.3679333 59.3643779,11.4498008 58.9772695,11.6124514 C58.5907033,11.7761863 58.2599804,11.9832948 57.9851009,12.2386562 C57.7096792,12.4940176 57.4966069,12.7884152 57.3437153,13.1240176 C57.1908238,13.4590779 57.1040768,13.8114875 57.0834744,14.1769092 L63.1302815,14.1769092 Z M66.7731127,20.5387162 C66.9005223,20.6325114 66.9254621,20.8195596 66.8235344,20.939921 C66.1225103,21.7678126 65.2566669,22.4146198 64.2303417,22.8819692 C63.1096791,23.3905234 61.9494381,23.6442583 60.7490767,23.6442583 C59.6083538,23.6442583 58.5348599,23.4615475 57.5275105,23.0944993 C56.5190768,22.7290776 55.6434744,22.2053427 54.9001612,21.5227523 C54.1573901,20.8407042 53.571848,20.020403 53.1440769,19.0645596 C52.7173902,18.1065476 52.5026914,17.0379332 52.5026914,15.8565477 C52.5026914,14.6762465 52.7173902,13.6087164 53.1440769,12.6507044 C53.571848,11.6943189 54.1573901,10.8740177 54.9001612,10.1919695 C55.6434744,9.50937916 56.5190768,8.98564423 57.5275105,8.61859605 C58.5348599,8.25317437 59.6083538,8.07046354 60.7490767,8.07046354 C61.8068478,8.07046354 62.768655,8.25317437 63.6344983,8.61859605 C64.4992573,8.98564423 65.2328115,9.50937916 65.8329922,10.1919695 C66.4342573,10.8740177 66.8972693,11.6943189 67.2225705,12.6507044 C67.548956,13.6087164 67.7121488,14.6762465 67.7121488,15.8565477 L67.7121488,17.0211259 C67.7121488,17.1702223 67.5912452,17.2916681 67.4416066,17.2916681 L57.4369684,17.2916681 C57.2585949,17.2916681 57.1203419,17.4662464 57.1696792,17.6370295 C57.3784141,18.3532343 57.7465467,18.9349813 58.2746189,19.3849813 C58.8861852,19.9032945 59.6392575,20.1640777 60.5349201,20.1640777 C61.2879924,20.1640777 61.9244984,19.9943789 62.4433538,19.6587765 C62.8933538,19.3681741 63.2929321,19.0049211 63.643173,18.5690175 C63.7342573,18.4562464 63.8947393,18.429138 64.0113055,18.5148006 L66.7731127,20.5387162 Z" id="Fill-53" fill="#47642E"></path>
                    <path d="M70.7822873,8.43593943 L74.821986,8.43593943 C74.9716245,8.43593943 75.0925281,8.55684304 75.0925281,8.70648159 L75.0925281,10.8182285 L75.153251,10.8182285 C75.6422872,9.90304782 76.2218655,9.21503579 76.8936124,8.75636111 C77.5659016,8.29822859 78.4100582,8.07051775 79.4287931,8.07051775 C79.6939136,8.07051775 79.9584919,8.07973462 80.2230702,8.10033703 C80.4876485,8.12093944 80.7321665,8.16214426 80.95554,8.22124064 L80.95554,12.4062405 C80.6302388,12.3053972 80.3098171,12.2289514 79.9937328,12.1769032 C79.6776485,12.1264815 79.3469256,12.1004574 79.001022,12.1004574 C78.1259618,12.1004574 77.4336124,12.2235297 76.9250582,12.4680478 C76.4159618,12.7120237 76.0234317,13.0530477 75.7485522,13.49112 C75.474757,13.9291923 75.2958414,14.4529272 75.2145161,15.0623248 C75.1326486,15.673891 75.0925281,16.3467224 75.0925281,17.0791922 L75.0925281,23.0083487 C75.0925281,23.1574451 74.9716245,23.2788908 74.821986,23.2788908 L70.7822873,23.2788908 C70.6326487,23.2788908 70.5117451,23.1574451 70.5117451,23.0083487 L70.5117451,8.70648159 C70.5117451,8.55684304 70.6326487,8.43593943 70.7822873,8.43593943" id="Fill-55" fill="#47642E"></path>
                </g>
            </g>
        </g>
    </g>
</svg>