<?xml version="1.0" encoding="UTF-8"?>
<svg width="30px" height="30px" viewBox="0 0 30 30" version="1.1" xmlns="http://www.w3.org/2000/svg" xmlns:xlink="http://www.w3.org/1999/xlink">
    <!-- Generator: Sketch 58 (84663) - https://sketch.com -->
    <title>Group 28</title>
    <desc>Created with Sketch.</desc>
    <defs>
        <polygon id="path-1" points="0.0001 0 30 0 30 19 0.0001 19"></polygon>
        <polygon id="path-3" points="0 0.940334318 5.89376377 0.940334318 5.89376377 6 0 6"></polygon>
        <polygon id="path-5" points="0.000159195275 0 6.86156568 0 6.86156568 5.8198 0.000159195275 5.8198"></polygon>
        <polygon id="path-7" points="0.0408591953 0.888527373 6 0.888527373 6 6 0.0408591953 6"></polygon>
        <polygon id="path-9" points="0 -0.000128028271 30 -0.000128028271 30 12.0137 0 12.0137"></polygon>
    </defs>
    <g id="Page-1" stroke="none" stroke-width="1" fill="none" fill-rule="evenodd">
        <g id="Contact" transform="translate(-148.000000, -758.000000)">
            <g id="Group-28" transform="translate(148.000000, 758.000000)">
                <g id="Group-3" transform="translate(0.000000, 11.000100)">
                    <mask id="mask-2" fill="white">
                        <use xlink:href="#path-1"></use>
                    </mask>
                    <g id="Clip-2"></g>
                    <path d="M27.0001,19 L3.0001,19 C1.3461,19 0.0001,17.654 0.0001,16 L0.0001,1 C0.0001,0.448 0.4481,0 1.0001,0 C1.5521,0 2.0001,0.448 2.0001,1 L2.0001,16 C2.0001,16.551 2.4491,17 3.0001,17 L27.0001,17 C27.5511,17 28.0001,16.551 28.0001,16 L28.0001,1 C28.0001,0.448 28.4481,0 29.0001,0 C29.5521,0 30.0001,0.448 30.0001,1 L30.0001,16 C30.0001,17.654 28.6541,19 27.0001,19" id="Fill-1" fill="#333333" mask="url(#mask-2)"></path>
                </g>
                <g id="Group-6" transform="translate(0.000000, 7.000100)">
                    <mask id="mask-4" fill="white">
                        <use xlink:href="#path-3"></use>
                    </mask>
                    <g id="Clip-5"></g>
                    <path d="M1.0006,6 C0.7046,6 0.4116,5.869 0.2136,5.618 C-0.1274,5.184 -0.0524,4.555 0.3826,4.214 L4.2756,1.154 C4.7086,0.813 5.3376,0.888 5.6796,1.323 C6.0216,1.757 5.9456,2.385 5.5116,2.727 L1.6176,5.786 C1.4346,5.93 1.2166,6 1.0006,6" id="Fill-4" fill="#333333" mask="url(#mask-4)"></path>
                </g>
                <path d="M9.9473,5.9703 C9.6513,5.9703 9.3583,5.8393 9.1603,5.5883 C8.8193,5.1543 8.8943,4.5253 9.3293,4.1843 L14.3823,0.2143 C14.8163,-0.1267 15.4443,-0.0527 15.7863,0.3823 C16.1273,0.8163 16.0523,1.4453 15.6173,1.7863 L10.5643,5.7563 C10.3813,5.9003 10.1633,5.9703 9.9473,5.9703" id="Fill-7" fill="#333333"></path>
                <g id="Group-11" transform="translate(14.000000, 0.000100)">
                    <mask id="mask-6" fill="white">
                        <use xlink:href="#path-5"></use>
                    </mask>
                    <g id="Clip-10"></g>
                    <path d="M5.8609,5.8198 C5.6449,5.8198 5.4269,5.7498 5.2439,5.6058 L0.3819,1.7858 C-0.0521,1.4448 -0.1271,0.8168 0.2139,0.3828 C0.5559,-0.0532 1.1849,-0.1272 1.6179,0.2138 L6.4789,4.0338 C6.9139,4.3748 6.9889,5.0038 6.6479,5.4378 C6.4499,5.6888 6.1569,5.8198 5.8609,5.8198" id="Fill-9" fill="#333333" mask="url(#mask-6)"></path>
                </g>
                <g id="Group-14" transform="translate(24.000000, 7.000100)">
                    <mask id="mask-8" fill="white">
                        <use xlink:href="#path-7"></use>
                    </mask>
                    <g id="Clip-13"></g>
                    <path d="M4.9996,6 C4.7836,6 4.5656,5.93 4.3826,5.786 L0.4226,2.675 C-0.0114,2.334 -0.0864,1.706 0.2546,1.271 C0.5956,0.836 1.2236,0.761 1.6586,1.103 L5.6176,4.214 C6.0526,4.555 6.1276,5.184 5.7866,5.618 C5.5886,5.869 5.2956,6 4.9996,6" id="Fill-12" fill="#333333" mask="url(#mask-8)"></path>
                </g>
                <path d="M4.0011,27.0001 C3.6991,27.0001 3.4011,26.8641 3.2041,26.6051 C2.8701,26.1661 2.9551,25.5381 3.3951,25.2041 L11.4541,19.0751 C11.8941,18.7401 12.5221,18.8271 12.8551,19.2661 C13.1901,19.7061 13.1051,20.3331 12.6651,20.6671 L4.6051,26.7961 C4.4241,26.9341 4.2121,27.0001 4.0011,27.0001" id="Fill-15" fill="#333333"></path>
                <path d="M25.9991,27.0001 C25.7881,27.0001 25.5761,26.9341 25.3951,26.7961 L17.3351,20.6671 C16.8951,20.3331 16.8101,19.7061 17.1451,19.2661 C17.4791,18.8261 18.1061,18.7411 18.5461,19.0751 L26.6051,25.2041 C27.0451,25.5381 27.1301,26.1661 26.7961,26.6051 C26.5991,26.8641 26.3011,27.0001 25.9991,27.0001" id="Fill-17" fill="#333333"></path>
                <g id="Group-21" transform="translate(0.000000, 11.000100)">
                    <mask id="mask-10" fill="white">
                        <use xlink:href="#path-9"></use>
                    </mask>
                    <g id="Clip-20"></g>
                    <path d="M15.0001,12.0137 C14.7961,12.0137 14.5921,11.9517 14.4181,11.8267 L0.4181,1.8137 C-0.0309,1.4927 -0.1349,0.8677 0.1871,0.4187 C0.5071,-0.0303 1.1311,-0.1353 1.5821,0.1867 L15.0001,9.7847 L28.4181,0.1867 C28.8681,-0.1353 29.4911,-0.0303 29.8131,0.4187 C30.1351,0.8677 30.0311,1.4927 29.5821,1.8137 L15.5821,11.8267 C15.4081,11.9517 15.2041,12.0137 15.0001,12.0137" id="Fill-19" fill="#333333" mask="url(#mask-10)"></path>
                </g>
                <path d="M25.0001,15.1515 C24.4481,15.1515 24.0001,14.7035 24.0001,14.1515 L24.0001,6.0005 L6.0001,6.0005 L6.0001,14.1515 C6.0001,14.7035 5.5521,15.1515 5.0001,15.1515 C4.4481,15.1515 4.0001,14.7035 4.0001,14.1515 L4.0001,6.0005 C4.0001,4.8975 4.8971,4.0005 6.0001,4.0005 L24.0001,4.0005 C25.1031,4.0005 26.0001,4.8975 26.0001,6.0005 L26.0001,14.1515 C26.0001,14.7035 25.5521,15.1515 25.0001,15.1515" id="Fill-22" fill="#333333"></path>
                <path d="M21.0001,10.0001 L9.0001,10.0001 C8.4481,10.0001 8.0001,9.5521 8.0001,9.0001 C8.0001,8.4481 8.4481,8.0001 9.0001,8.0001 L21.0001,8.0001 C21.5521,8.0001 22.0001,8.4481 22.0001,9.0001 C22.0001,9.5521 21.5521,10.0001 21.0001,10.0001" id="Fill-24" fill="#F58220"></path>
                <path d="M21.0001,14.0001 L9.0001,14.0001 C8.4481,14.0001 8.0001,13.5521 8.0001,13.0001 C8.0001,12.4481 8.4481,12.0001 9.0001,12.0001 L21.0001,12.0001 C21.5521,12.0001 22.0001,12.4481 22.0001,13.0001 C22.0001,13.5521 21.5521,14.0001 21.0001,14.0001" id="Fill-26" fill="#F58220"></path>
            </g>
        </g>
    </g>
</svg>