<?xml version="1.0" encoding="UTF-8"?>
<svg width="18px" height="30px" viewBox="0 0 18 30" version="1.1" xmlns="http://www.w3.org/2000/svg" xmlns:xlink="http://www.w3.org/1999/xlink">
    <!-- Generator: Sketch 58 (84663) - https://sketch.com -->
    <title>Group 9</title>
    <desc>Created with Sketch.</desc>
    <g id="Page-1" stroke="none" stroke-width="1" fill="none" fill-rule="evenodd">
        <g id="Contact" transform="translate(-153.000000, -801.000000)">
            <g id="Group-9" transform="translate(153.000000, 801.000000)">
                <path d="M3,2 C2.448,2 2,2.449 2,3 L2,27 C2,27.551 2.448,28 3,28 L15,28 C15.552,28 16,27.551 16,27 L16,3 C16,2.449 15.552,2 15,2 L3,2 Z M15,30 L3,30 C1.346,30 0,28.654 0,27 L0,3 C0,1.346 1.346,0 3,0 L15,0 C16.654,0 18,1.346 18,3 L18,27 C18,28.654 16.654,30 15,30 L15,30 Z" id="Fill-1" fill="#333333"></path>
                <path d="M15,27 L3,27 C1.346,27 0,25.654 0,24 C0,23.448 0.447,23 1,23 C1.553,23 2,23.448 2,24 C2,24.551 2.448,25 3,25 L15,25 C15.552,25 16,24.551 16,24 C16,23.448 16.447,23 17,23 C17.553,23 18,23.448 18,24 C18,25.654 16.654,27 15,27" id="Fill-3" fill="#333333"></path>
                <path d="M9,5 L6,5 C5.447,5 5,4.552 5,4 C5,3.448 5.447,3 6,3 L9,3 C9.553,3 10,3.448 10,4 C10,4.552 9.553,5 9,5" id="Fill-5" fill="#F58220"></path>
                <path d="M13,5 L12,5 C11.447,5 11,4.552 11,4 C11,3.448 11.447,3 12,3 L13,3 C13.553,3 14,3.448 14,4 C14,4.552 13.553,5 13,5" id="Fill-7" fill="#F58220"></path>
            </g>
        </g>
    </g>
</svg>